<svg width="10" height="11" viewBox="0 0 10 11" fill="none" xmlns="http://www.w3.org/2000/svg">
<path d="M2.01111 4.76056C2.81111 6.49 4.1 7.90167 5.67222 8.78778L6.89444 7.44333C7.04444 7.27833 7.26667 7.22333 7.46111 7.29667C8.08333 7.52278 8.75556 7.645 9.44444 7.645C9.75 7.645 10 7.92 10 8.25611V10.3889C10 10.725 9.75 11 9.44444 11C4.22778 11 0 6.34944 0 0.611111C0 0.275 0.25 0 0.555556 0H2.5C2.80556 0 3.05556 0.275 3.05556 0.611111C3.05556 1.375 3.16667 2.10833 3.37222 2.79278C3.43333 3.00667 3.38889 3.245 3.23333 3.41611L2.01111 4.76056Z" fill="white"/>
</svg>
