<svg width="39" height="39" viewBox="0 0 39 39" fill="none" xmlns="http://www.w3.org/2000/svg">
<g filter="url(#filter0_i_2027_7)">
<rect width="39" height="39" rx="8" fill="#46658A"/>
</g>
<path fill-rule="evenodd" clip-rule="evenodd" d="M18.6835 16.3459C18.5575 16.0439 18.4619 16.0324 18.2709 16.0246C18.2059 16.0209 18.1335 16.0171 18.0531 16.0171C17.8048 16.0171 17.545 16.0898 17.3883 16.2504C17.1974 16.4454 16.7236 16.9004 16.7236 17.8334C16.7236 18.7665 17.4036 19.6688 17.4953 19.7952C17.5909 19.9212 18.821 21.8638 20.7311 22.6555C22.2248 23.2749 22.668 23.2175 23.0079 23.1449C23.5046 23.0379 24.1272 22.6706 24.284 22.2272C24.4406 21.7835 24.4406 21.405 24.3946 21.3247C24.3488 21.2445 24.2227 21.1987 24.0318 21.1029C23.8408 21.0073 22.9125 20.5485 22.7367 20.4873C22.5647 20.4223 22.4005 20.4453 22.2708 20.6289C22.0873 20.8851 21.9079 21.1452 21.7626 21.3019C21.6481 21.4242 21.4608 21.4396 21.3042 21.3745C21.094 21.2867 20.5058 21.08 19.7799 20.4338C19.2183 19.933 18.8363 19.3098 18.7256 19.1224C18.6148 18.9312 18.7141 18.8202 18.8019 18.7171C18.8975 18.5985 18.9891 18.5144 19.0846 18.4034C19.1802 18.2926 19.2336 18.2353 19.2947 18.1052C19.3597 17.979 19.3139 17.8489 19.268 17.7533C19.2221 17.6575 18.8402 16.7244 18.6835 16.3459ZM20.4981 13.042C16.9148 13.042 14 15.9595 14 19.5463C14 20.9687 14.4585 22.288 15.2378 23.3586L14.4278 25.7753L16.9262 24.9763C17.9538 25.6569 19.1801 26.0508 20.5019 26.0508C24.0852 26.0508 27 23.1331 27 19.5465C27 15.9597 24.0852 13.0422 20.5019 13.0422L20.4981 13.042Z" fill="white"/>
<defs>
<filter id="filter0_i_2027_7" x="0" y="0" width="39" height="39" filterUnits="userSpaceOnUse" color-interpolation-filters="sRGB">
<feFlood flood-opacity="0" result="BackgroundImageFix"/>
<feBlend mode="normal" in="SourceGraphic" in2="BackgroundImageFix" result="shape"/>
<feColorMatrix in="SourceAlpha" type="matrix" values="0 0 0 0 0 0 0 0 0 0 0 0 0 0 0 0 0 0 127 0" result="hardAlpha"/>
<feOffset/>
<feGaussianBlur stdDeviation="5"/>
<feComposite in2="hardAlpha" operator="arithmetic" k2="-1" k3="1"/>
<feColorMatrix type="matrix" values="0 0 0 0 1 0 0 0 0 1 0 0 0 0 1 0 0 0 0.5 0"/>
<feBlend mode="normal" in2="shape" result="effect1_innerShadow_2027_7"/>
</filter>
</defs>
</svg>
